<?xml version="1.0" encoding="UTF-8" standalone="no"?>
<svg
   xmlns:dc="http://purl.org/dc/elements/1.1/"
   xmlns:cc="http://creativecommons.org/ns#"
   xmlns:rdf="http://www.w3.org/1999/02/22-rdf-syntax-ns#"
   xmlns:svg="http://www.w3.org/2000/svg"
   xmlns="http://www.w3.org/2000/svg"
   xmlns:sodipodi="http://sodipodi.sourceforge.net/DTD/sodipodi-0.dtd"
   xmlns:inkscape="http://www.inkscape.org/namespaces/inkscape"
   width="256pt"
   height="301pt"
   viewBox="0 0 256 301"
   version="1.1"
   id="svg2"
   inkscape:version="0.91 r13725"
   sodipodi:docname="espendulo.svg">
  <metadata
     id="metadata71">
    <rdf:RDF>
      <cc:Work
         rdf:about="">
        <dc:format>image/svg+xml</dc:format>
        <dc:type
           rdf:resource="http://purl.org/dc/dcmitype/StillImage" />
        <dc:title></dc:title>
      </cc:Work>
    </rdf:RDF>
  </metadata>
  <defs
     id="defs69" />
  <sodipodi:namedview
     pagecolor="#ffffff"
     bordercolor="#666666"
     borderopacity="1"
     objecttolerance="10"
     gridtolerance="10"
     guidetolerance="10"
     inkscape:pageopacity="0"
     inkscape:pageshadow="2"
     inkscape:window-width="1366"
     inkscape:window-height="741"
     id="namedview67"
     showgrid="false"
     inkscape:zoom="1.7741098"
     inkscape:cx="177.30446"
     inkscape:cy="120.48544"
     inkscape:window-x="0"
     inkscape:window-y="27"
     inkscape:window-maximized="0"
     inkscape:current-layer="surface584" />
  <g
     id="surface584">
    <path
       style="fill:none;stroke-width:8;stroke-linecap:butt;stroke-linejoin:miter;stroke:rgb(0%,0%,0%);stroke-opacity:1;stroke-miterlimit:4;"
       d="M 1186.328125 2994.53125 L 1186.328125 85.3125 "
       transform="matrix(0.1,0,0,-0.1,0,301)"
       id="path5" />
    <path
       style="fill:none;stroke-width:8;stroke-linecap:butt;stroke-linejoin:miter;stroke:rgb(0%,0%,0%);stroke-opacity:1;stroke-miterlimit:4;"
       d="M 2317.695312 1539.882812 C 2317.695312 906.132812 1805.742188 392.34375 1174.21875 392.34375 C 542.695312 392.34375 30.742188 906.132812 30.742188 1539.882812 C 30.742188 2173.632812 542.695312 2687.460938 1174.21875 2687.460938 C 1805.742188 2687.460938 2317.695312 2173.632812 2317.695312 1539.882812 Z M 2317.695312 1539.882812 "
       transform="matrix(0.1,0,0,-0.1,0,301)"
       id="path7" />
    <path
       style="fill:none;stroke-width:7.47628;stroke-linecap:butt;stroke-linejoin:miter;stroke:rgb(0%,0%,0%);stroke-opacity:1;stroke-dasharray:7.47628,7.47628;stroke-miterlimit:4;"
       d="M 2164.414062 998.476562 C 2164.414062 839.492188 1728.984375 709.84375 1186.171875 707.304688 C 643.359375 704.765625 193.90625 830.195312 176.445312 989.101562 C 158.984375 1148.007812 579.960938 1281.640625 1122.1875 1289.335938 C 1664.453125 1296.953125 2127.460938 1175.859375 2162.382812 1017.226562 "
       transform="matrix(0.1,0,0,-0.1,0,301)"
       id="path9" />
    <path
       style="fill:none;stroke-width:8.01008;stroke-linecap:butt;stroke-linejoin:miter;stroke:rgb(0%,0%,0%);stroke-opacity:1;stroke-miterlimit:4;"
       d="M 2148.046875 942.03125 L 1186.445312 1677.34375 "
       transform="matrix(0.1,0,0,-0.1,0,301)"
       id="path11" />
    <path
       style=" stroke:none;fill-rule:evenodd;fill:rgb(0%,0%,0%);fill-opacity:1;"
       d="M 208.441406 201.929688 L 203.949219 202.527344 L 214.804688 206.796875 L 207.84375 197.4375 Z M 208.441406 201.929688 "
       id="path13" />
    <path
       style="fill:none;stroke-width:8.01008;stroke-linecap:butt;stroke-linejoin:miter;stroke:rgb(0%,0%,0%);stroke-opacity:1;stroke-miterlimit:4;"
       d="M 2084.414062 990.703125 L 2039.492188 984.6875 L 2148.046875 942.03125 L 2078.4375 1035.625 Z M 2084.414062 990.703125 "
       transform="matrix(0.1,0,0,-0.1,0,301)"
       id="path15" />
    <path
       style=" stroke:none;fill-rule:evenodd;fill:rgb(0%,0%,0%);fill-opacity:1;"
       d="M 117.398438 132.308594 C 117.933594 131.605469 118.941406 131.472656 119.644531 132.007812 C 120.347656 132.550781 120.480469 133.554688 119.941406 134.257812 C 119.40625 134.960938 118.398438 135.09375 117.695312 134.554688 C 116.996094 134.019531 116.859375 133.011719 117.398438 132.308594 Z M 117.398438 132.308594 "
       id="path17" />
    <path
       style="fill:none;stroke-width:4.00504;stroke-linecap:butt;stroke-linejoin:miter;stroke:rgb(0%,0%,0%);stroke-opacity:1;stroke-miterlimit:4;"
       d="M 1173.984375 1686.914062 C 1179.335938 1693.945312 1189.414062 1695.234375 1196.445312 1689.921875 C 1203.476562 1684.53125 1204.804688 1674.453125 1199.414062 1667.460938 C 1194.0625 1660.429688 1183.984375 1659.0625 1176.953125 1664.453125 C 1169.960938 1669.804688 1168.59375 1679.882812 1173.984375 1686.914062 Z M 1173.984375 1686.914062 "
       transform="matrix(0.1,0,0,-0.1,0,301)"
       id="path19" />
    <path
       style="fill:#000000;fill-opacity:1;fill-rule:evenodd;stroke:none"
       d="m 58.896828,264.24709 0,-0.17043 -0.0022,-0.0111 0,-0.0221 -0.0044,-0.007 0,-0.009 -0.0022,-0.0177 -0.0022,-0.0155 -0.0066,-0.0133 -0.0022,-0.0155 -0.0066,-0.0111 -0.0044,-0.0111 -0.0089,-0.0111 -0.0089,-0.009 -0.01771,-0.0133 -0.01107,-0.004 -0.01328,-0.009 -0.0066,-0.002 -0.0089,-0.002 -0.0044,0 -0.0089,-0.004 -0.0089,-0.002 -0.0089,0 -0.0089,-0.002 -0.04869,0 -0.01107,-0.004 -0.06419,0 -0.01328,-0.002 -0.04427,0 c -0.885363,0.91192 -2.14258,0.91192 -2.600756,0.91192 l 0,0.4449 c 0.28553,0 1.128839,0 1.872545,-0.37185 l 0,7.40385 c 0,0.51573 -0.04206,0.68616 -1.328046,0.68616 l -0.458176,0 0,0.44268 4.630453,0 0,-0.44268 -0.458176,0 c -1.285991,0 -1.330259,-0.15715 -1.330259,-0.68616 z m 0,0"
       id="path21"
       inkscape:connector-curvature="0" />
    <path
       style="fill:#000000;fill-opacity:1;fill-rule:evenodd;stroke:none"
       d="m 174.32246,157.26153 0,-0.003 -0.003,-0.007 0,-0.01 -0.002,-0.007 0,-0.007 -0.003,-0.003 0,-0.007 -0.003,-0.007 -0.002,-0.005 -0.003,-0.007 -0.003,-0.005 -0.003,-0.007 -0.002,-0.007 -0.007,-0.003 -0.002,-0.005 -0.007,-0.007 -0.002,-0.005 -0.007,-0.005 -0.005,-0.003 -0.005,-0.005 -0.007,-0.003 -0.005,-0.005 -0.008,-0.003 -0.005,-0.002 -0.008,-0.002 -0.007,-0.005 -0.008,-0.003 -0.008,0 -0.008,-0.002 -0.0168,0 c -0.15406,0 -0.71169,0.55764 -0.94948,0.96288 -0.30477,-0.75355 -0.85236,-0.97795 -1.29779,-0.97795 l 0,0.30812 c 0.90594,0 1.10186,1.13034 1.10186,1.22746 0,0.0837 -0.76862,3.1415 -0.81049,3.19676 -0.20597,0.39185 -0.988,1.2844 -1.77002,1.2844 -0.83729,0 -0.89422,-1.0734 -0.89422,-1.31119 0,-0.66983 0.40357,-2.19202 0.64136,-2.77812 0.43204,-1.03321 1.16048,-1.61931 1.73151,-1.61931 l 0,-0.30812 c -1.64611,0 -3.36422,2.0681 -3.36422,4.09098 0,1.36813 0.82389,2.23388 1.84371,2.23388 0.59949,0 1.14205,-0.33659 1.64777,-0.83896 -0.12726,0.48897 -0.5861,2.37287 -0.63131,2.50013 -0.1122,0.3885 -0.22104,0.44544 -1.00307,0.45884 -0.18253,0 -0.32152,0 -0.32152,0.28132 0,0.01 0,0.15071 0.18253,0.15071 l 2.8317,0 c 0.0703,0 0.25286,0 0.25286,-0.2763 0,-0.15573 -0.14066,-0.15573 -0.36505,-0.15573 -0.66983,0 -0.66983,-0.0955 -0.66983,-0.2244 0,-0.0971 0.0285,-0.17918 0.0569,-0.30477 z m 0,0"
       id="path23"
       inkscape:connector-curvature="0" />
    <path
       style="fill:#000000;fill-opacity:1;fill-rule:evenodd;stroke:none"
       d="m 235.99954,192.36905 -0.008,0.043 -0.01,0.0463 -0.007,0.0397 -0.01,0.0381 -0.008,0.0381 -0.01,0.0331 -0.008,0.0348 -0.0199,0.0612 -0.01,0.0248 -0.0116,0.0281 -0.0116,0.0232 -0.0132,0.0199 -0.0132,0.0215 -0.0149,0.0199 -0.0331,0.0331 -0.0182,0.0149 -0.0199,0.0116 -0.0463,0.0232 -0.0248,0.01 -0.0281,0.008 -0.0314,0.005 -0.0331,0.007 -0.0331,0.005 -0.0165,0 -0.0215,0.003 -0.0165,0.003 -0.0215,0 -0.0198,0.005 -0.043,0 -0.0232,0.002 -0.0993,0 c -0.15386,0 -0.29117,0 -0.29117,0.28125 0,0.11415 0.0645,0.17371 0.16378,0.17371 l 2.32445,0 c 0.0629,0 0.22831,0 0.22831,-0.29283 0,-0.16213 -0.12739,-0.16213 -0.30606,-0.16213 -0.63364,0 -0.63364,-0.10423 -0.63364,-0.23659 0,-0.17536 0.53272,-2.57095 0.62206,-2.94154 0.16544,0.42518 0.51948,0.94136 1.16636,0.94136 l -0.01,-0.32261 c -0.83879,0 -1.00423,-1.2193 -1.00423,-1.30864 0,-0.0314 0,-0.0612 0.038,-0.23824 l 0.62206,-2.88198 c 0.0893,-0.39872 0.43015,-0.80901 0.66011,-1.0307 0.44339,-0.45331 0.81232,-0.5592 1.02739,-0.5592 0.50625,0 0.81232,0.51453 0.81232,1.38309 0,0.86857 -0.41691,2.56104 -0.64687,3.11857 -0.43015,1.0307 -1.03898,1.5171 -1.50883,1.5171 l 0.01,0.32261 c 1.47408,0 3.06066,-2.14908 3.06066,-4.3114 0,-1.38309 -0.72298,-2.35423 -1.68585,-2.35423 -0.6386,0 -1.24742,0.53107 -1.66434,1.10515 -0.12738,-0.79577 -0.67334,-1.10515 -1.14485,-1.10515 -0.58401,0 -0.8239,0.57574 -0.93805,0.83879 -0.22996,0.50294 -0.39541,1.38143 -0.39541,1.42776 0,0.14724 0.12739,0.14724 0.15387,0.14724 0.12738,0 0.13897,-0.0149 0.21672,-0.3375 0.21673,-1.04559 0.4682,-1.75203 0.92482,-1.75203 0.21673,0 0.3954,0.11912 0.3954,0.67666 0,0.34081 -0.038,0.49963 -0.0893,0.75276 z m 0,0"
       id="path25"
       inkscape:connector-curvature="0" />
    <path
       style="fill:none;stroke-width:8;stroke-linecap:butt;stroke-linejoin:miter;stroke:rgb(0%,0%,0%);stroke-opacity:1;stroke-dasharray:48,8;stroke-miterlimit:4;"
       d="M 14.570312 1515.625 L 14.570312 109.53125 "
       transform="matrix(0.1,0,0,-0.1,0,301)"
       id="path27" />
    <path
       style="fill:none;stroke-width:8;stroke-linecap:butt;stroke-linejoin:miter;stroke:rgb(0%,0%,0%);stroke-opacity:1;stroke-miterlimit:4;"
       d="M 1186.328125 246.914062 L 14.570312 246.914062 "
       transform="matrix(0.1,0,0,-0.1,0,301)"
       id="path29" />
    <path
       style=" stroke:none;fill-rule:evenodd;fill:rgb(0%,0%,0%);fill-opacity:1;"
       d="M 110.632812 276.308594 L 107.433594 279.507812 L 118.632812 276.308594 L 107.433594 273.105469 Z M 110.632812 276.308594 "
       id="path31" />
    <path
       style="fill:none;stroke-width:8;stroke-linecap:butt;stroke-linejoin:miter;stroke:rgb(0%,0%,0%);stroke-opacity:1;stroke-miterlimit:4;"
       d="M 1106.328125 246.914062 L 1074.335938 214.882812 L 1186.328125 246.914062 L 1074.335938 278.945312 Z M 1106.328125 246.914062 "
       transform="matrix(0.1,0,0,-0.1,0,301)"
       id="path33" />
    <path
       style=" stroke:none;fill-rule:evenodd;fill:rgb(0%,0%,0%);fill-opacity:1;"
       d="M 9.457031 276.308594 L 12.65625 273.105469 L 1.457031 276.308594 L 12.65625 279.507812 Z M 9.457031 276.308594 "
       id="path35" />
    <path
       style="fill:none;stroke-width:8;stroke-linecap:butt;stroke-linejoin:miter;stroke:rgb(0%,0%,0%);stroke-opacity:1;stroke-miterlimit:4;"
       d="M 94.570312 246.914062 L 126.5625 278.945312 L 14.570312 246.914062 L 126.5625 214.882812 Z M 94.570312 246.914062 "
       transform="matrix(0.1,0,0,-0.1,0,301)"
       id="path37" />
    <path
       style="fill:none;stroke-width:8;stroke-linecap:butt;stroke-linejoin:miter;stroke:rgb(0%,0%,0%);stroke-opacity:1;stroke-miterlimit:4;"
       d="M 2148.007812 917.65625 L 2479.335938 1548.007812 "
       transform="matrix(0.1,0,0,-0.1,0,301)"
       id="path39" />
    <path
       style=" stroke:none;fill-rule:evenodd;fill:rgb(0%,0%,0%);fill-opacity:1;"
       d="M 244.210938 153.28125 L 245.554688 157.601562 L 247.933594 146.199219 L 239.890625 154.628906 Z M 244.210938 153.28125 "
       id="path41" />
    <path
       style="fill:none;stroke-width:8;stroke-linecap:butt;stroke-linejoin:miter;stroke:rgb(0%,0%,0%);stroke-opacity:1;stroke-miterlimit:4;"
       d="M 2442.109375 1477.1875 L 2455.546875 1433.984375 L 2479.335938 1547.96875 L 2398.90625 1463.710938 Z M 2442.109375 1477.1875 "
       transform="matrix(0.1,0,0,-0.1,0,301)"
       id="path43" />
    <path
       style="fill:#000000;fill-opacity:1;fill-rule:evenodd;stroke:none"
       d="m 36.599517,38.888551 0.216489,0.09437 0.225742,0.09992 0.227591,0.10547 0.229442,0.111019 0.227591,0.116572 0.11102,0.06106 0.112871,0.06476 0.107319,0.06661 0.105469,0.06476 0.10547,0.07031 0.09992,0.07401 0.09622,0.07587 0.09437,0.07586 0.09067,0.08141 0.08512,0.08326 0.08141,0.08697 0.07401,0.08882 0.06846,0.09067 0.06476,0.09807 0.05921,0.09622 0.04996,0.101768 0.04441,0.103619 0.03701,0.11102 0.02961,0.10917 0.02035,0.116572 0.0148,0.120271 0.0037,0.123973 c 0,1.036188 -0.451482,1.635697 -1.894745,1.635697 -0.758637,0 -1.400704,-0.407074 -1.913247,-0.93442 -0.856706,-0.873359 -0.886311,-1.661602 -0.886311,-1.98356 0,-0.129524 -0.116572,-0.249795 -0.249796,-0.249795 -0.262747,0 -0.262747,0.234992 -0.262747,0.482937 l 0,2.712593 c 0,0.247945 0,0.482938 0.262747,0.482938 0.103619,0 0.148027,-0.04441 0.22019,-0.133224 0.246095,-0.231293 0.510693,-0.277551 0.699428,-0.277551 l 0.0148,-0.506992 c -0.21834,0 -0.468135,0.02775 -0.684624,0.144326 l 0,-0.932569 0.0148,0 c 0,0 0.21649,0.346013 0.669822,0.788243 l -0.0148,0.506992 c 0.377468,0 0.729032,0.131374 0.862256,0.190585 0.595809,0.22019 1.017685,0.22019 1.252678,0.22019 2.098281,0 3.893107,-1.065794 3.893107,-2.975341 0,-1.226773 -0.743835,-2.538661 -2.827314,-3.35651 -1.300786,-0.523645 -2.744048,-1.093549 -2.744048,-2.113084 l -0.508843,0 c 0,1.328542 1.604242,1.996513 2.91613,2.523859 0.538448,0.216489 1.285984,0.508842 1.854037,1.093549 0.464435,0.508842 0.801196,1.065793 0.801196,1.852186 0,1.136107 -0.743835,1.70601 -1.182365,1.939153 0.205387,-0.421877 0.21834,-1.006583 0.21834,-1.110202 0,-1.532078 -1.515426,-2.333274 -2.655233,-2.814361 -1.369249,-0.582856 -2.666335,-1.195318 -2.666335,-2.568268 0,-0.684624 0.190585,-1.515425 0.976978,-1.966907 l 0.01295,0.0148 c -0.260897,0.421877 -0.2757,0.919617 -0.2757,1.036188 l 0.508843,0 c 0,-0.801196 0.571754,-1.48767 1.604241,-1.48767 1.050991,0 2.466499,1.091698 2.740348,2.316621 0.04811,0.205387 0.07401,0.351564 0.279401,0.351564 0.247945,0 0.247945,-0.234993 0.247945,-0.481088 l 0,-2.218553 c 0,-0.246095 0,-0.481088 -0.247945,-0.481088 -0.114721,0 -0.173931,0.07401 -0.231292,0.118422 -0.131374,0.133224 -0.336761,0.292353 -0.699427,0.292353 l 0.02591,0.510693 c 0.394122,-0.01665 0.625413,-0.133224 0.643917,-0.148027 l 0,0.87706 c -0.101769,-0.16283 -0.234993,-0.305306 -0.643917,-0.729033 l -0.02591,-0.510693 c -0.366367,0 -0.701277,-0.118421 -0.87891,-0.175782 -0.466284,-0.175782 -0.799345,-0.234993 -1.239725,-0.234993 -1.98171,0 -3.308401,0.980679 -3.308401,2.91613 0,0.949223 0.392271,1.941003 2.638579,2.890226 z m 0,0"
       id="path45"
       inkscape:connector-curvature="0" />
    <path
       style="fill:#000000;fill-opacity:1;fill-rule:evenodd;stroke:none"
       d="m 45.759923,33.303833 -0.352037,0 c -0.02996,0.226577 -0.134822,0.837022 -0.267772,0.941884 -0.08239,0.06179 -0.880091,0.06179 -1.022403,0.06179 l -1.902494,0 c 1.086069,-0.962482 1.447468,-1.250852 2.065404,-1.735839 0.765867,-0.610445 1.479302,-1.250852 1.479302,-2.23206 0,-1.250852 -1.097305,-2.014846 -2.417441,-2.014846 -1.282686,0 -2.149669,0.898816 -2.149669,1.850063 0,0.526182 0.445663,0.576741 0.54678,0.576741 0.249047,0 0.54678,-0.172273 0.54678,-0.548653 0,-0.181636 -0.07116,-0.546779 -0.606701,-0.546779 0.320203,-0.732161 1.022403,-0.96061 1.50739,-0.96061 1.031765,0 1.571055,0.807062 1.571055,1.644084 0,0.900689 -0.640406,1.612252 -0.971844,1.983014 l -2.488598,2.458636 c -0.104862,0.09363 -0.104862,0.114225 -0.104862,0.402595 l 4.256269,0 z m 0,0"
       id="path47"
       inkscape:connector-curvature="0" />
    <path
       style="fill:none;stroke-width:8;stroke-linecap:butt;stroke-linejoin:miter;stroke:rgb(0%,0%,0%);stroke-opacity:1;stroke-dasharray:48,8;stroke-miterlimit:4;"
       d="M 1394.6875 2810.625 C 1309.921875 2791.953125 1189.6875 2787.304688 1086.171875 2798.554688 C 982.695312 2809.84375 914.6875 2835.117188 911.679688 2863.28125 C 908.671875 2891.484375 971.25 2917.617188 1072.226562 2930.234375 "
       transform="matrix(0.1,0,0,-0.1,0,301)"
       id="path49" />
    <path
       style=" stroke:none;fill-rule:evenodd;fill:rgb(0%,0%,0%);fill-opacity:1;"
       d="M 131.65625 21.65625 L 129.21875 25.46875 L 139.46875 19.9375 L 127.84375 19.214844 Z M 131.65625 21.65625 "
       id="path51" />
    <path
       style="fill:none;stroke-width:8;stroke-linecap:butt;stroke-linejoin:miter;stroke:rgb(0%,0%,0%);stroke-opacity:1;stroke-miterlimit:4;"
       d="M 1316.5625 2793.4375 L 1292.1875 2755.3125 L 1394.6875 2810.625 L 1278.4375 2817.8125 Z M 1316.5625 2793.4375 "
       transform="matrix(0.1,0,0,-0.1,0,301)"
       id="path53" />
    <path
       style="fill:#000000;fill-opacity:1;fill-rule:evenodd;stroke:none"
       d="m 128.49801,11.775612 0.10269,-0.02416 0.1027,-0.02618 0.1047,-0.02819 0.10471,-0.03423 0.10269,-0.03423 0.10471,-0.03624 0.20538,-0.08658 0.10269,-0.04833 0.0987,-0.04833 0.0987,-0.05235 0.0987,-0.05437 0.0946,-0.05638 0.0926,-0.06242 0.0906,-0.06242 0.0866,-0.06443 0.0846,-0.06645 0.0785,-0.07048 0.0765,-0.07249 0.0725,-0.07652 0.0705,-0.0745 0.0624,-0.08054 0.0604,-0.07853 0.0523,-0.08457 0.0483,-0.08658 0.0443,-0.09061 0.0362,-0.09061 0.0322,-0.09262 0.0242,-0.094638 0.0181,-0.098665 0.0121,-0.096651 0.002,-0.1006784 c 0,-0.92423 -0.96853,-1.6108581 -2.37803,-1.6108581 l -3.06264,0 c -0.21546,0 -0.31211,0 -0.31211,0.2134384 0,0.1167875 0.0966,0.1167875 0.30204,0.1167875 0.0222,0 0.22552,0 0.40875,0.022149 0.19331,0.022149 0.28794,0.034231 0.28794,0.173167 0,0.042285 -0.008,0.076515 -0.0423,0.2033707 l -1.4397,5.7729128 c -0.10874,0.420837 -0.12887,0.50742 -0.9786,0.50742 -0.1933,0 -0.28995,0 -0.28995,0.213439 0,0.120815 0.12886,0.120815 0.15101,0.120815 l 2.71833,0 c 0.0866,0 0.21545,0 0.21545,-0.217467 0,-0.116787 -0.0966,-0.116787 -0.30002,-0.116787 -0.39869,0 -0.69871,0 -0.69871,-0.195316 0,-0.06443 0.0201,-0.118801 0.0322,-0.183235 l 0.70878,-2.849206 1.27862,0 -0.0101,-0.237601 -1.20411,0 0.69871,-2.8049065 c 0.0644,-0.2577373 0.0987,-0.3644571 0.30002,-0.3966742 0.0987,-0.012081 0.44298,-0.012081 0.65642,-0.012081 0.76516,0 1.95719,0 1.95719,1.0671932 0,0.3644566 -0.17115,1.1074657 -0.58997,1.5242747 -0.2819,0.279886 -0.85174,0.622194 -1.81826,0.622194 l 0.0101,0.237601 c 0.98061,0 1.17391,0.602059 1.17391,0.978597 0,0.161086 -0.0866,0.495338 -0.15303,0.740995 -0.0745,0.304049 -0.16914,0.700723 -0.16914,0.914161 0,1.165859 1.28869,1.165859 1.42762,1.165859 0.91618,0 1.2907,-1.089343 1.2907,-1.240361 0,-0.128868 -0.11678,-0.128868 -0.12886,-0.128868 -0.0967,0 -0.11881,0.07652 -0.14096,0.151018 -0.26579,0.79536 -0.72891,0.98061 -0.97658,0.98061 -0.35439,0 -0.42889,-0.239616 -0.42889,-0.658439 0,-0.33224 0.0644,-0.879931 0.10672,-1.226265 0.0221,-0.149005 0.0443,-0.354389 0.0443,-0.505407 0,-0.825565 -0.72086,-1.161832 -1.01283,-1.268551 z m 0,0"
       id="path55"
       inkscape:connector-curvature="0" />
    <path
       style="fill:none;stroke-width:8;stroke-linecap:butt;stroke-linejoin:miter;stroke:rgb(0%,0%,0%);stroke-opacity:1;stroke-miterlimit:4;"
       d="M 2156.09375 950 L 2156.09375 214.609375 "
       transform="matrix(0.1,0,0,-0.1,0,301)"
       id="path57" />
    <path
       style="fill-rule:evenodd;fill:rgb(0%,0%,0%);fill-opacity:1;stroke-width:8;stroke-linecap:butt;stroke-linejoin:miter;stroke:rgb(0%,0%,0%);stroke-opacity:1;stroke-miterlimit:4;"
       d="M 2156.09375 294.609375 L 2124.101562 326.601562 L 2156.09375 214.609375 L 2188.085938 326.601562 Z M 2156.09375 294.609375 "
       transform="matrix(0.1,0,0,-0.1,0,301)"
       id="path59" />
    <path
       style="fill:#000000;fill-opacity:1;fill-rule:evenodd;stroke:none"
       d="m 220.44109,249.00517 -0.001,0.0165 -0.005,0.0226 -0.003,0.0165 -0.003,0.0196 -0.008,0.0391 -0.008,0.0406 -0.009,0.0391 -0.006,0.0406 -0.008,0.0421 -0.009,0.0376 -0.001,0.0211 -0.005,0.0165 -0.005,0.0181 -0.002,0.0165 -0.005,0.018 -0.002,0.0196 -0.006,0.0286 -0.003,0.012 -0.001,0.015 -0.003,0.012 0,0.0105 -0.002,0.0105 0,0.009 -0.002,0.008 0,0.008 c 0,0.22408 0.14437,0.33687 0.30077,0.33687 0.12482,0 0.3128,-0.10076 0.38348,-0.3519 0.0105,-0.0241 0.13535,-0.60906 0.19701,-0.91886 l 0.22858,-1.12488 c 0.0602,-0.27069 0.12332,-0.5474 0.17445,-0.83463 0.0421,-0.21054 0.12482,-0.56996 0.13535,-0.61959 0.1564,-0.3895 0.7053,-1.5219 1.69032,-1.5219 0.46469,0 0.55944,0.46018 0.55944,0.87224 0,0.3128 -0.0737,0.66019 -0.1564,1.03464 l -0.28874,1.4452 -0.20904,0.94743 c -0.0406,0.24814 -0.13234,0.67222 -0.13234,0.73538 0,0.22408 0.14287,0.33687 0.29927,0.33687 0.32032,0 0.38348,-0.31431 0.46619,-0.71133 0.14588,-0.69778 0.52785,-2.51894 0.62109,-3.00469 0.0316,-0.16241 0.58049,-1.65574 1.71138,-1.65574 0.44514,0 0.55944,0.42258 0.55944,0.87224 0,0.71132 -0.43762,2.12945 -0.64365,2.78964 -0.0932,0.30077 -0.13535,0.43912 -0.13535,0.68575 0,0.585 0.36393,1.02413 0.84968,1.02413 0.97449,0 1.35798,-1.82267 1.35798,-1.92042 0,-0.12482 -0.0932,-0.12482 -0.12482,-0.12482 -0.10377,0 -0.10377,0.0376 -0.1534,0.22257 -0.1564,0.66019 -0.48875,1.54596 -1.0572,1.54596 -0.17746,0 -0.24964,-0.12332 -0.24964,-0.41055 0,-0.3128 0.0932,-0.60906 0.18647,-0.88427 0.1955,-0.64816 0.63162,-2.0317 0.63162,-2.74302 0,-0.81058 -0.41506,-1.33091 -1.19105,-1.33091 -0.77749,0 -1.30534,0.54891 -1.68882,1.2091 -0.0105,-0.16242 -0.0421,-0.5865 -0.33235,-0.88577 -0.25867,-0.26317 -0.59102,-0.32333 -0.84968,-0.32333 -0.93088,0 -1.43918,0.79554 -1.61513,1.08428 -0.0526,-0.71132 -0.48725,-1.08428 -0.95345,-1.08428 -0.47822,0 -0.67372,0.48575 -0.76696,0.70832 -0.18798,0.43762 -0.32032,1.17149 -0.32032,1.20909 0,0.12482 0.10076,0.12482 0.12181,0.12482 0.10377,0 0.1143,-0.0135 0.17746,-0.28573 0.17444,-0.88577 0.38198,-1.4828 0.75643,-1.4828 0.16543,0 0.32032,0.0993 0.32032,0.57297 0,0.26017 -0.0301,0.39702 -0.16542,1.04668 z m 0,0"
       id="path61"
       inkscape:connector-curvature="0" />
    <path
       style="fill:#000000;fill-opacity:1;fill-rule:evenodd;stroke:none"
       d="m 233.81488,244.49728 0.003,-0.0148 0.002,-0.0134 0.002,-0.0104 0.004,-0.0163 0.004,-0.0252 0.002,-0.0148 0.004,-0.0118 0.002,-0.0103 0.003,-0.0163 0.002,-0.0118 0.003,-0.0148 0,-0.0148 0.002,-0.0148 0,-0.0326 c 0,-0.20747 -0.12151,-0.33046 -0.29489,-0.33046 -0.10225,0 -0.37937,0.0874 -0.42086,0.52903 -0.18227,-0.45494 -0.54089,-0.77355 -0.94841,-0.77355 l 0.0103,0.26971 c 0.67426,0 0.81801,0.99287 0.81801,1.05659 0,0.0593 -0.0207,0.13337 -0.0311,0.18227 l -0.49199,2.34436 c -0.0593,0.32157 -0.29489,0.62684 -0.51866,0.86097 -0.21487,0.22229 -0.53052,0.44161 -0.82838,0.44161 -0.50977,0 -0.66388,-0.6387 -0.66388,-1.12772 0,-0.59127 0.29638,-2.03908 0.57201,-2.66592 0.27711,-0.60165 0.71575,-1.09216 1.14402,-1.09216 l -0.0104,-0.26971 c -1.16476,0 -2.42882,1.719 -2.42882,3.4869 0,1.21515 0.6224,1.9398 1.35593,1.9398 0.60313,0 1.08327,-0.57794 1.18552,-0.7128 l 0.0104,0.0118 c -0.21488,1.09216 -0.33639,1.59748 -0.33639,1.61971 -0.0415,0.11114 -0.38974,1.32926 -1.47152,1.32926 -0.19265,0 -0.532,-0.0118 -0.81653,-0.123 0.30527,-0.10966 0.4179,-0.42975 0.4179,-0.63869 0,-0.1971 -0.11263,-0.42975 -0.38678,-0.42975 -0.22525,0 -0.55126,0.21932 -0.55126,0.70982 0,0.50533 0.3764,0.74984 1.35741,0.74984 1.27591,0 2.01093,-0.95582 2.16357,-1.6938 z m 0,0"
       id="path63"
       inkscape:connector-curvature="0" />
    <path
       style=" stroke:none;fill-rule:nonzero;fill:rgb(0%,0%,0%);fill-opacity:1;"
       d="M 218.726562 207.3125 C 218.726562 208.867188 217.464844 210.132812 215.910156 210.132812 C 214.355469 210.132812 213.09375 208.867188 213.09375 207.3125 C 213.09375 205.757812 214.355469 204.496094 215.910156 204.496094 C 217.464844 204.496094 218.726562 205.757812 218.726562 207.3125 Z M 218.726562 207.3125 "
       id="path65" />
  </g>
</svg>
